<svg xmlns="http://www.w3.org/2000/svg" width="32" height="32"><path style="color:#373737;fill:#000;fill-opacity:1;fill-rule:nonzero;stroke:none;stroke-width:2;stroke-linecap:butt;stroke-linejoin:round;stroke-miterlimit:4;stroke-opacity:1;stroke-dasharray:none;stroke-dashoffset:2;marker:none;visibility:visible;display:inline;overflow:visible" d="M0 0h8v8H0z"/><path style="color:#373737;fill:#000;fill-opacity:1;fill-rule:nonzero;stroke:none;stroke-width:2;marker:none;visibility:visible;display:inline;overflow:visible" d="M16 32h8v8h-8z" transform="translate(0 -32)"/><path style="color:#373737;fill:#d2d2d2;fill-opacity:1;fill-rule:nonzero;stroke:none;stroke-width:2;marker:none;visibility:visible;display:inline;overflow:visible" d="M8 32h8v8H8zm16 0h8v8h-8z" transform="translate(0 -32)"/><path style="color:#373737;fill:#000;fill-opacity:1;fill-rule:nonzero;stroke:none;stroke-width:2;marker:none;visibility:visible;display:inline;overflow:visible" d="M8 40h8v8H8zm16 0h8v8h-8z" transform="translate(0 -32)"/><path style="color:#373737;fill:#d2d2d2;fill-opacity:1;fill-rule:nonzero;stroke:none;stroke-width:2;marker:none;visibility:visible;display:inline;overflow:visible" d="M16 40h8v8h-8zM0 40h8v8H0z" transform="translate(0 -32)"/><path style="color:#373737;fill:#000;fill-opacity:1;fill-rule:nonzero;stroke:none;stroke-width:2;marker:none;visibility:visible;display:inline;overflow:visible" d="M0 48h8v8H0zm16 0h8v8h-8z" transform="translate(0 -32)"/><path style="color:#373737;fill:#d2d2d2;fill-opacity:1;fill-rule:nonzero;stroke:none;stroke-width:2;marker:none;visibility:visible;display:inline;overflow:visible" d="M8 48h8v8H8zm16 0h8v8h-8z" transform="translate(0 -32)"/><path style="color:#373737;fill:#000;fill-opacity:1;fill-rule:nonzero;stroke:none;stroke-width:2;marker:none;visibility:visible;display:inline;overflow:visible" d="M8 56h8v8H8zm16 0h8v8h-8z" transform="translate(0 -32)"/><path style="color:#373737;fill:#d2d2d2;fill-opacity:1;fill-rule:nonzero;stroke:none;stroke-width:2;marker:none;visibility:visible;display:inline;overflow:visible" d="M16 56h8v8h-8zM0 56h8v8H0z" transform="translate(0 -32)"/></svg>