<svg width="16" height="16" viewBox="0 0 16 16" fill="none" xmlns="http://www.w3.org/2000/svg">
<path d="M6.63 0H11V9H6.63C6.1977 9 5.7831 8.82827 5.47742 8.52258C5.17173 8.2169 5 7.8023 5 7.37V1.63C5 1.1977 5.17173 0.7831 5.47742 0.477416C5.7831 0.171732 6.1977 0 6.63 0V0Z" fill="white"/>
<path opacity="0.5" d="M16 2H12V4H16V2Z" fill="white"/>
<path opacity="0.5" d="M16 5H12V7H16V5Z" fill="white"/>
<path opacity="0.5" d="M2.44011 15.53C3.18002 15.2803 3.87292 14.9085 4.49011 14.43C4.82149 14.1905 5.04862 13.8333 5.12486 13.4316C5.20111 13.0299 5.12069 12.6143 4.90011 12.27C4.42704 11.7378 3.81361 11.3497 3.13011 11.15C2.27956 10.8943 1.49937 10.4461 0.850111 9.84001C0.566298 9.51207 0.350342 9.13109 0.214739 8.71914C0.0791367 8.30718 0.0265799 7.87242 0.0601106 7.44001C0.0674235 6.98168 0.166798 6.5295 0.352329 6.11034C0.53786 5.69118 0.805761 5.31359 1.14011 5.00001C2.0106 4.26871 3.11324 3.87162 4.25011 3.88001V5.12001C3.42196 5.14943 2.62847 5.45977 2.00011 6.00001C1.59108 6.40906 1.35786 6.9616 1.35011 7.54001C1.29513 8.0612 1.44185 8.58365 1.76011 9.00001C2.28269 9.46222 2.90066 9.80365 3.57011 10C4.57599 10.2349 5.44894 10.8564 6.00011 11.73C6.22911 12.2203 6.2915 12.7719 6.17776 13.3009C6.06401 13.8299 5.78038 14.3072 5.37011 14.66C4.46474 15.151 3.46673 15.4474 2.44011 15.53Z" fill="white"/>
</svg>
